<mxfile host="app.diagrams.net" modified="2023-12-11T13:56:57.738Z" agent="Mozilla/5.0 (Macintosh; Intel Mac OS X 10_15_7) AppleWebKit/537.36 (KHTML, like Gecko) Chrome/119.0.0.0 Safari/537.36" etag="eM7NKDLDpcaZqM0BUGF9" version="22.1.7" type="github">
  <diagram name="Seite-1" id="seM9K211Fq18FHVvWayW">
    <mxGraphModel dx="2042" dy="1271" grid="0" gridSize="10" guides="1" tooltips="1" connect="1" arrows="1" fold="1" page="0" pageScale="1" pageWidth="827" pageHeight="1169" background="#000000" math="0" shadow="1">
      <root>
        <mxCell id="0" />
        <mxCell id="1" parent="0" />
        <mxCell id="Tm_fkrOzm4iO2OovqsH9-3" value="" style="edgeStyle=none;curved=1;rounded=0;orthogonalLoop=1;jettySize=auto;html=1;fontSize=12;startSize=8;endSize=8;fillColor=#1ba1e2;strokeColor=#006EAF;" parent="1" source="Tm_fkrOzm4iO2OovqsH9-1" target="Tm_fkrOzm4iO2OovqsH9-2" edge="1">
          <mxGeometry relative="1" as="geometry" />
        </mxCell>
        <mxCell id="Tm_fkrOzm4iO2OovqsH9-5" value="" style="edgeStyle=none;curved=1;rounded=0;orthogonalLoop=1;jettySize=auto;html=1;fontSize=12;startSize=8;endSize=8;" parent="1" source="Tm_fkrOzm4iO2OovqsH9-1" target="Tm_fkrOzm4iO2OovqsH9-4" edge="1">
          <mxGeometry relative="1" as="geometry" />
        </mxCell>
        <mxCell id="Tm_fkrOzm4iO2OovqsH9-7" value="" style="edgeStyle=none;curved=1;rounded=0;orthogonalLoop=1;jettySize=auto;html=1;fontSize=12;startSize=8;endSize=8;fillColor=#008a00;strokeColor=#005700;" parent="1" source="Tm_fkrOzm4iO2OovqsH9-1" target="Tm_fkrOzm4iO2OovqsH9-6" edge="1">
          <mxGeometry relative="1" as="geometry" />
        </mxCell>
        <mxCell id="Tm_fkrOzm4iO2OovqsH9-8" value="" style="edgeStyle=none;curved=1;rounded=0;orthogonalLoop=1;jettySize=auto;html=1;fontSize=12;startSize=8;endSize=8;" parent="1" source="Tm_fkrOzm4iO2OovqsH9-1" target="Tm_fkrOzm4iO2OovqsH9-4" edge="1">
          <mxGeometry relative="1" as="geometry" />
        </mxCell>
        <mxCell id="Tm_fkrOzm4iO2OovqsH9-9" value="" style="edgeStyle=none;curved=1;rounded=0;orthogonalLoop=1;jettySize=auto;html=1;fontSize=12;startSize=8;endSize=8;" parent="1" source="Tm_fkrOzm4iO2OovqsH9-1" target="Tm_fkrOzm4iO2OovqsH9-4" edge="1">
          <mxGeometry relative="1" as="geometry" />
        </mxCell>
        <mxCell id="Tm_fkrOzm4iO2OovqsH9-10" value="" style="edgeStyle=none;curved=1;rounded=0;orthogonalLoop=1;jettySize=auto;html=1;fontSize=12;startSize=8;endSize=8;fillColor=#0050ef;strokeColor=#001DBC;" parent="1" source="Tm_fkrOzm4iO2OovqsH9-1" target="Tm_fkrOzm4iO2OovqsH9-4" edge="1">
          <mxGeometry relative="1" as="geometry" />
        </mxCell>
        <mxCell id="Tm_fkrOzm4iO2OovqsH9-12" value="" style="edgeStyle=none;curved=1;rounded=0;orthogonalLoop=1;jettySize=auto;html=1;fontSize=12;startSize=8;endSize=8;fillColor=#d80073;strokeColor=#A50040;" parent="1" source="Tm_fkrOzm4iO2OovqsH9-1" target="Tm_fkrOzm4iO2OovqsH9-11" edge="1">
          <mxGeometry relative="1" as="geometry" />
        </mxCell>
        <mxCell id="Tm_fkrOzm4iO2OovqsH9-1" value="FLAME MVP" style="rounded=0;whiteSpace=wrap;html=1;fontSize=16;fillColor=#dae8fc;strokeColor=#6c8ebf;" parent="1" vertex="1">
          <mxGeometry x="176" y="-35" width="120" height="60" as="geometry" />
        </mxCell>
        <mxCell id="Tm_fkrOzm4iO2OovqsH9-15" value="" style="edgeStyle=none;curved=1;rounded=0;orthogonalLoop=1;jettySize=auto;html=1;fontSize=12;startSize=8;endSize=8;fillColor=#1ba1e2;strokeColor=#006EAF;" parent="1" source="Tm_fkrOzm4iO2OovqsH9-2" target="Tm_fkrOzm4iO2OovqsH9-14" edge="1">
          <mxGeometry relative="1" as="geometry" />
        </mxCell>
        <mxCell id="Tm_fkrOzm4iO2OovqsH9-2" value="1. Central" style="rounded=0;whiteSpace=wrap;html=1;fontSize=16;fillColor=#1ba1e2;strokeColor=#006EAF;fontColor=#ffffff;" parent="1" vertex="1">
          <mxGeometry x="-207" y="100" width="120" height="60" as="geometry" />
        </mxCell>
        <mxCell id="Tm_fkrOzm4iO2OovqsH9-19" value="" style="edgeStyle=none;curved=1;rounded=0;orthogonalLoop=1;jettySize=auto;html=1;fontSize=12;startSize=8;endSize=8;fillColor=#0050ef;strokeColor=#001DBC;" parent="1" source="Tm_fkrOzm4iO2OovqsH9-4" target="Tm_fkrOzm4iO2OovqsH9-18" edge="1">
          <mxGeometry relative="1" as="geometry" />
        </mxCell>
        <mxCell id="Tm_fkrOzm4iO2OovqsH9-4" value="2. Node" style="rounded=0;whiteSpace=wrap;html=1;fontSize=16;fillColor=#0050ef;strokeColor=#001DBC;fontColor=#ffffff;" parent="1" vertex="1">
          <mxGeometry x="21" y="93" width="120" height="60" as="geometry" />
        </mxCell>
        <mxCell id="Tm_fkrOzm4iO2OovqsH9-21" value="" style="edgeStyle=none;curved=1;rounded=0;orthogonalLoop=1;jettySize=auto;html=1;fontSize=12;startSize=8;endSize=8;fillColor=#008a00;strokeColor=#005700;" parent="1" source="Tm_fkrOzm4iO2OovqsH9-6" target="Tm_fkrOzm4iO2OovqsH9-20" edge="1">
          <mxGeometry relative="1" as="geometry" />
        </mxCell>
        <mxCell id="bRI6Ea-mW8as5AOQ2J7K-8" value="" style="edgeStyle=none;curved=1;rounded=0;orthogonalLoop=1;jettySize=auto;html=1;fontSize=12;startSize=8;endSize=8;fillColor=#008a00;strokeColor=#005700;" edge="1" parent="1" source="Tm_fkrOzm4iO2OovqsH9-6" target="Tm_fkrOzm4iO2OovqsH9-20">
          <mxGeometry relative="1" as="geometry" />
        </mxCell>
        <mxCell id="bRI6Ea-mW8as5AOQ2J7K-9" value="" style="edgeStyle=none;curved=1;rounded=0;orthogonalLoop=1;jettySize=auto;html=1;fontSize=12;startSize=8;endSize=8;fillColor=#008a00;strokeColor=#005700;" edge="1" parent="1" source="Tm_fkrOzm4iO2OovqsH9-6" target="Tm_fkrOzm4iO2OovqsH9-20">
          <mxGeometry relative="1" as="geometry" />
        </mxCell>
        <mxCell id="bRI6Ea-mW8as5AOQ2J7K-10" style="edgeStyle=none;curved=1;rounded=0;orthogonalLoop=1;jettySize=auto;html=1;fontSize=12;startSize=8;endSize=8;fillColor=#008a00;strokeColor=#005700;" edge="1" parent="1" source="Tm_fkrOzm4iO2OovqsH9-6" target="bRI6Ea-mW8as5AOQ2J7K-1">
          <mxGeometry relative="1" as="geometry" />
        </mxCell>
        <mxCell id="Tm_fkrOzm4iO2OovqsH9-6" value="3. Analysis" style="rounded=0;whiteSpace=wrap;html=1;fontSize=16;fillColor=#008a00;strokeColor=#005700;fontColor=#ffffff;" parent="1" vertex="1">
          <mxGeometry x="283" y="100" width="120" height="60" as="geometry" />
        </mxCell>
        <mxCell id="bRI6Ea-mW8as5AOQ2J7K-12" value="" style="edgeStyle=none;curved=1;rounded=0;orthogonalLoop=1;jettySize=auto;html=1;fontSize=12;startSize=8;endSize=8;fillColor=#d80073;strokeColor=#A50040;" edge="1" parent="1" source="Tm_fkrOzm4iO2OovqsH9-11" target="bRI6Ea-mW8as5AOQ2J7K-11">
          <mxGeometry relative="1" as="geometry" />
        </mxCell>
        <mxCell id="Tm_fkrOzm4iO2OovqsH9-11" value="4. Testing &amp;amp; Deployment" style="whiteSpace=wrap;html=1;fontSize=16;rounded=0;fillColor=#d80073;strokeColor=#A50040;fontColor=#ffffff;" parent="1" vertex="1">
          <mxGeometry x="554" y="108" width="120" height="60" as="geometry" />
        </mxCell>
        <mxCell id="Tm_fkrOzm4iO2OovqsH9-17" value="" style="edgeStyle=none;curved=1;rounded=0;orthogonalLoop=1;jettySize=auto;html=1;fontSize=12;startSize=8;endSize=8;exitX=0.5;exitY=1;exitDx=0;exitDy=0;fillColor=#1ba1e2;strokeColor=#006EAF;" parent="1" source="Tm_fkrOzm4iO2OovqsH9-2" target="Tm_fkrOzm4iO2OovqsH9-16" edge="1">
          <mxGeometry relative="1" as="geometry" />
        </mxCell>
        <mxCell id="Tm_fkrOzm4iO2OovqsH9-14" value="1.2" style="rounded=0;whiteSpace=wrap;html=1;fontSize=16;fillColor=#1ba1e2;strokeColor=#006EAF;fontColor=#ffffff;" parent="1" vertex="1">
          <mxGeometry x="-207" y="290" width="120" height="60" as="geometry" />
        </mxCell>
        <mxCell id="bRI6Ea-mW8as5AOQ2J7K-3" value="" style="edgeStyle=none;curved=1;rounded=0;orthogonalLoop=1;jettySize=auto;html=1;fontSize=12;startSize=8;endSize=8;fillColor=#1ba1e2;strokeColor=#006EAF;" edge="1" parent="1" source="Tm_fkrOzm4iO2OovqsH9-16" target="bRI6Ea-mW8as5AOQ2J7K-2">
          <mxGeometry relative="1" as="geometry" />
        </mxCell>
        <mxCell id="bRI6Ea-mW8as5AOQ2J7K-4" value="" style="edgeStyle=none;curved=1;rounded=0;orthogonalLoop=1;jettySize=auto;html=1;fontSize=12;startSize=8;endSize=8;fillColor=#1ba1e2;strokeColor=#006EAF;" edge="1" parent="1" source="Tm_fkrOzm4iO2OovqsH9-16" target="bRI6Ea-mW8as5AOQ2J7K-2">
          <mxGeometry relative="1" as="geometry" />
        </mxCell>
        <mxCell id="bRI6Ea-mW8as5AOQ2J7K-5" value="" style="edgeStyle=none;curved=1;rounded=0;orthogonalLoop=1;jettySize=auto;html=1;fontSize=12;startSize=8;endSize=8;fillColor=#1ba1e2;strokeColor=#006EAF;" edge="1" parent="1" source="Tm_fkrOzm4iO2OovqsH9-16" target="bRI6Ea-mW8as5AOQ2J7K-2">
          <mxGeometry relative="1" as="geometry" />
        </mxCell>
        <mxCell id="bRI6Ea-mW8as5AOQ2J7K-7" value="" style="edgeStyle=none;curved=1;rounded=0;orthogonalLoop=1;jettySize=auto;html=1;fontSize=12;startSize=8;endSize=8;fillColor=#1ba1e2;strokeColor=#006EAF;" edge="1" parent="1" source="Tm_fkrOzm4iO2OovqsH9-16" target="bRI6Ea-mW8as5AOQ2J7K-6">
          <mxGeometry relative="1" as="geometry" />
        </mxCell>
        <mxCell id="Tm_fkrOzm4iO2OovqsH9-16" value="1.1" style="whiteSpace=wrap;html=1;fontSize=16;rounded=0;fillColor=#1ba1e2;strokeColor=#006EAF;fontColor=#ffffff;" parent="1" vertex="1">
          <mxGeometry x="-383" y="290" width="120" height="60" as="geometry" />
        </mxCell>
        <mxCell id="Tm_fkrOzm4iO2OovqsH9-18" value="2.1" style="whiteSpace=wrap;html=1;fontSize=16;rounded=0;fillColor=#0050ef;strokeColor=#001DBC;fontColor=#ffffff;" parent="1" vertex="1">
          <mxGeometry x="21" y="290" width="120" height="60" as="geometry" />
        </mxCell>
        <mxCell id="Tm_fkrOzm4iO2OovqsH9-20" value="3.1" style="whiteSpace=wrap;html=1;fontSize=16;rounded=0;fillColor=#008a00;strokeColor=#005700;fontColor=#ffffff;" parent="1" vertex="1">
          <mxGeometry x="221" y="288" width="120" height="60" as="geometry" />
        </mxCell>
        <mxCell id="bRI6Ea-mW8as5AOQ2J7K-14" value="" style="edgeStyle=none;curved=1;rounded=0;orthogonalLoop=1;jettySize=auto;html=1;fontSize=12;startSize=8;endSize=8;fillColor=#008a00;strokeColor=#005700;" edge="1" parent="1" source="bRI6Ea-mW8as5AOQ2J7K-1" target="bRI6Ea-mW8as5AOQ2J7K-13">
          <mxGeometry relative="1" as="geometry" />
        </mxCell>
        <mxCell id="bRI6Ea-mW8as5AOQ2J7K-16" style="edgeStyle=none;curved=1;rounded=0;orthogonalLoop=1;jettySize=auto;html=1;fontSize=12;startSize=8;endSize=8;fillColor=#008a00;strokeColor=#005700;" edge="1" parent="1" source="bRI6Ea-mW8as5AOQ2J7K-1" target="bRI6Ea-mW8as5AOQ2J7K-15">
          <mxGeometry relative="1" as="geometry" />
        </mxCell>
        <mxCell id="bRI6Ea-mW8as5AOQ2J7K-1" value="3.2" style="whiteSpace=wrap;html=1;fontSize=16;rounded=0;fillColor=#008a00;strokeColor=#005700;fontColor=#ffffff;" vertex="1" parent="1">
          <mxGeometry x="381" y="288" width="120" height="60" as="geometry" />
        </mxCell>
        <mxCell id="bRI6Ea-mW8as5AOQ2J7K-2" value="1.1.1" style="whiteSpace=wrap;html=1;fontSize=16;rounded=0;fillColor=#1ba1e2;strokeColor=#006EAF;fontColor=#ffffff;" vertex="1" parent="1">
          <mxGeometry x="-552" y="466" width="120" height="60" as="geometry" />
        </mxCell>
        <mxCell id="bRI6Ea-mW8as5AOQ2J7K-6" value="1.1.2." style="whiteSpace=wrap;html=1;fontSize=16;rounded=0;fillColor=#1ba1e2;strokeColor=#006EAF;fontColor=#ffffff;" vertex="1" parent="1">
          <mxGeometry x="-389" y="466" width="120" height="60" as="geometry" />
        </mxCell>
        <mxCell id="bRI6Ea-mW8as5AOQ2J7K-11" value="4.1" style="whiteSpace=wrap;html=1;fontSize=16;fillColor=#d80073;strokeColor=#A50040;rounded=0;fontColor=#ffffff;" vertex="1" parent="1">
          <mxGeometry x="554" y="288" width="120" height="60" as="geometry" />
        </mxCell>
        <mxCell id="bRI6Ea-mW8as5AOQ2J7K-13" value="3.2.1" style="whiteSpace=wrap;html=1;fontSize=16;fillColor=#008a00;strokeColor=#005700;rounded=0;fontColor=#ffffff;" vertex="1" parent="1">
          <mxGeometry x="304" y="458" width="120" height="60" as="geometry" />
        </mxCell>
        <mxCell id="bRI6Ea-mW8as5AOQ2J7K-15" value="3.2.2" style="whiteSpace=wrap;html=1;fontSize=16;fillColor=#008a00;strokeColor=#005700;rounded=0;fontColor=#ffffff;" vertex="1" parent="1">
          <mxGeometry x="464" y="458" width="120" height="60" as="geometry" />
        </mxCell>
      </root>
    </mxGraphModel>
  </diagram>
</mxfile>
